# xmcd
#
# Track frame offsets: 
#        150
#        12372
#        22422
#        35105
#        46808
#        55357
#        66301
#        74413
#        84799
#        94925
#        107155
#        115571
#        126488
#        138919
#        149787
#        159571
#
# Disc length: 2238 seconds
#
# Revision: 0
# Processed by: cddbd v1.5.2PL0 Copyright (c) Steve Scherf et al.
# Submitted via: ExactAudioCopy v0.99pb5
#
DISCID=ef08bc10
DTITLE=Johnny Cash - Legends of the 20th Century
DYEAR=2009
DGENRE=Country
TTITLE0=Walk The Line
TTITLE1=Ballad Of A Tennage Queen
TTITLE2=Next In Line
TTITLE3=Big River
TTITLE4=Guess Things Happen That Way
TTITLE5=Train Of Love
TTITLE6=I Can't Help It
TTITLE7=The Ways Of A Woman In Love
TTITLE8=Hey Porter
TTITLE9=Home Of The Blues
TTITLE10=Country Boy
TTITLE11=Cry, Cry, Cry
TTITLE12=Folsom Prison Blues
TTITLE13=I Heard That Lonesome Whistle Blow
TTITLE14=Rock Island Line
TTITLE15=The Wreck Of The Old '97
EXTD=
EXTT0=
EXTT1=
EXTT2=
EXTT3=
EXTT4=
EXTT5=
EXTT6=
EXTT7=
EXTT8=
EXTT9=
EXTT10=
EXTT11=
EXTT12=
EXTT13=
EXTT14=
EXTT15=
PLAYORDER=
